<svg width="24" height="25" viewBox="0 0 24 25" fill="none" xmlns="http://www.w3.org/2000/svg">
<path d="M2.02451 6.87207C7.93992 6.87207 13.8275 6.87207 19.7318 6.87207C19.7318 8.88097 19.7318 10.8787 19.7318 12.8988C19.6706 12.8765 19.6205 12.8543 19.5648 12.832C19.32 12.7374 19.0751 12.6372 18.8247 12.5538C18.6411 12.4925 18.4519 12.4814 18.4686 12.2032C18.4741 12.0585 18.3239 11.9917 18.1792 11.9917C17.478 11.9917 16.7769 11.9861 16.0701 11.9917C15.8642 11.9917 15.7641 12.103 15.7696 12.3312C15.7752 12.4814 15.7084 12.5259 15.5804 12.5705C15.1631 12.7318 14.7513 12.9155 14.3228 13.0991C14.3228 12.8543 14.3228 12.6038 14.3228 12.3479C14.3228 12.0919 14.2226 11.9917 13.9722 11.9861C13.2988 11.9806 12.6255 11.9806 11.9466 11.9861C11.7017 11.9861 11.6016 12.0863 11.6016 12.3256C11.6016 13.0045 11.6016 13.689 11.6016 14.3679C11.6016 14.6016 11.6906 14.6962 11.9299 14.7018C12.1692 14.7073 12.414 14.7018 12.6978 14.7018C12.6311 14.8131 12.5754 14.891 12.5309 14.9745C12.4085 15.2082 12.286 15.4419 12.1803 15.6812C12.1247 15.8036 12.0746 15.8648 11.9243 15.8593C11.6962 15.8537 11.596 15.9594 11.596 16.1932C11.596 16.8721 11.5904 17.5565 11.596 18.2354C11.596 18.3189 11.6183 18.4469 11.6739 18.4803C11.8242 18.5693 11.8242 18.7085 11.8631 18.8476C11.9911 19.2928 12.1302 19.7324 12.2694 20.1943C12.2193 20.1943 12.1469 20.2054 12.0746 20.2054C9.24209 20.2054 6.41515 20.2054 3.58266 20.2054C2.58655 20.2054 2.00781 19.6211 2.00781 18.625C2.00781 14.7908 2.00781 10.9567 2.00781 7.12249C2.02451 7.05014 2.02451 6.97224 2.02451 6.87207ZM15.7641 9.45971C15.7641 9.79917 15.7585 10.1386 15.7641 10.4781C15.7696 10.7285 15.8587 10.8231 16.1035 10.8287C16.7824 10.8342 17.4669 10.8342 18.1458 10.8287C18.3907 10.8287 18.4853 10.7285 18.4908 10.4836C18.4964 9.8103 18.4964 9.13695 18.4908 8.46361C18.4908 8.21319 18.3851 8.11303 18.1291 8.11303C17.4613 8.11303 16.7936 8.11303 16.1258 8.11303C15.8587 8.11303 15.7641 8.20763 15.7641 8.48031C15.7641 8.80863 15.7641 9.13139 15.7641 9.45971ZM4.64554 11.9861C4.31165 11.9861 3.97776 11.9861 3.64387 11.9861C3.37676 11.9861 3.28216 12.0863 3.27659 12.3534C3.27659 13.0212 3.27103 13.689 3.27659 14.3512C3.27659 14.6016 3.37119 14.7018 3.61605 14.7018C4.29496 14.7073 4.97943 14.7073 5.65834 14.7018C5.90319 14.7018 5.99779 14.6072 6.00336 14.3568C6.00892 13.6834 6.00892 13.0101 6.00336 12.3367C6.00336 12.0807 5.90319 11.9861 5.64721 11.9861C5.31332 11.9861 4.97943 11.9861 4.64554 11.9861ZM11.6071 9.46528C11.6071 9.80473 11.6071 10.1442 11.6071 10.4836C11.6071 10.7341 11.6962 10.8231 11.9466 10.8287C12.6255 10.8342 13.31 10.8342 13.9889 10.8287C14.2282 10.8287 14.3228 10.7285 14.3228 10.4781C14.3228 9.80473 14.3228 9.13139 14.3228 8.45805C14.3228 8.21876 14.2226 8.11303 13.9778 8.11303C13.2988 8.10746 12.6144 8.10746 11.9355 8.11303C11.7017 8.11303 11.6071 8.21319 11.6016 8.44692C11.6071 8.78637 11.6071 9.12582 11.6071 9.46528ZM10.1603 17.2226C10.1603 16.8888 10.1603 16.5549 10.1603 16.221C10.1603 15.965 10.0657 15.8648 9.8097 15.8648C9.14192 15.8593 8.47414 15.8593 7.80636 15.8648C7.53925 15.8648 7.43908 15.965 7.43908 16.2321C7.43908 16.8999 7.43908 17.5677 7.43908 18.2299C7.43908 18.4859 7.53369 18.5805 7.78967 18.586C8.46301 18.5916 9.13635 18.5916 9.81526 18.586C10.0657 18.586 10.1547 18.4914 10.1547 18.2466C10.1658 17.9016 10.1603 17.5621 10.1603 17.2226ZM10.1603 9.48197C10.1603 9.14808 10.1603 8.81419 10.1603 8.48031C10.1603 8.20763 10.0657 8.11303 9.79857 8.11303C9.13079 8.11303 8.46301 8.11303 7.79523 8.11303C7.53925 8.11303 7.43908 8.21319 7.43908 8.46918C7.43908 9.14252 7.43908 9.81586 7.43908 10.4892C7.43908 10.7341 7.53369 10.8287 7.77854 10.8342C8.45188 10.8398 9.12523 10.8398 9.80413 10.8342C10.0657 10.8342 10.1547 10.7452 10.1547 10.4836C10.1658 10.1442 10.1603 9.8103 10.1603 9.48197ZM3.27659 9.45971C3.27659 9.79917 3.27103 10.1386 3.27659 10.4781C3.28216 10.7285 3.37119 10.8287 3.61605 10.8287C4.29496 10.8342 4.97943 10.8342 5.65834 10.8287C5.90319 10.8287 5.99779 10.7341 6.00336 10.4836C6.00892 9.8103 6.00892 9.13695 6.00336 8.46361C6.00336 8.20763 5.90319 8.11303 5.64721 8.11303C4.97943 8.11303 4.31165 8.11303 3.64387 8.11303C3.37676 8.11303 3.28216 8.21319 3.27659 8.48031C3.27659 8.80863 3.27659 9.13139 3.27659 9.45971ZM4.63998 18.5805C4.97943 18.5805 5.31888 18.586 5.6639 18.5805C5.90319 18.5749 6.00336 18.4859 6.00892 18.2577C6.01449 17.5677 6.01449 16.8832 6.00892 16.1932C6.00892 15.965 5.90319 15.8593 5.67503 15.8593C4.99612 15.8537 4.31165 15.8537 3.63274 15.8593C3.39345 15.8593 3.28772 15.965 3.28772 16.2043C3.28216 16.8776 3.28216 17.551 3.28772 18.2243C3.28772 18.4803 3.38789 18.5749 3.64387 18.5749C3.9722 18.586 4.30609 18.5805 4.63998 18.5805ZM10.1603 13.3551C10.1603 13.0101 10.1658 12.6595 10.1603 12.3145C10.1603 12.0974 10.0601 11.9917 9.84309 11.9917C9.15305 11.9861 8.46858 11.9861 7.77854 11.9917C7.55038 11.9917 7.44465 12.0974 7.44465 12.3256C7.43908 13.0045 7.44465 13.689 7.44465 14.3679C7.44465 14.6127 7.53925 14.7073 7.78967 14.7073C8.46858 14.7129 9.15305 14.7129 9.83196 14.7073C10.0657 14.7073 10.1603 14.6127 10.1603 14.379C10.1658 14.034 10.1603 13.6945 10.1603 13.3551Z" fill="#E1E5FF"/>
<path d="M12.4297 17.7725C12.4241 15.1236 14.5722 12.9756 17.2266 12.9756C19.8754 12.9756 22.0346 15.1292 22.029 17.7725C22.0235 20.4102 19.8754 22.5527 17.2377 22.5582C14.5833 22.5638 12.4353 20.4213 12.4297 17.7725ZM20.9661 17.7669C20.9661 15.7024 19.2967 14.0329 17.2321 14.0273C15.1732 14.0218 13.487 15.6968 13.4815 17.7558C13.4759 19.8259 15.162 21.512 17.2266 21.5065C19.2967 21.5009 20.9661 19.8315 20.9661 17.7669Z" fill="#E1E5FF"/>
<path d="M19.7351 6.17138C13.8253 6.17138 7.93767 6.17138 2 6.17138C2.02782 5.7095 2 5.24206 2.08904 4.80243C2.22259 4.13465 2.87924 3.68947 3.55259 3.76181C3.55259 4.03449 3.56928 4.30716 3.54702 4.57984C3.49694 5.23649 3.98108 5.77628 4.69338 5.73732C4.88814 5.72619 5.08291 5.74289 5.27768 5.73176C5.88981 5.7095 6.30161 5.28657 6.30717 4.67444C6.31274 4.36838 6.30717 4.06788 6.30717 3.75068C6.71341 3.75068 7.10294 3.75068 7.52031 3.75068C7.52031 4.02892 7.52031 4.3016 7.52031 4.57984C7.52031 5.33666 7.92097 5.73176 8.67779 5.73176C8.87812 5.73176 9.08402 5.73732 9.28435 5.72619C9.85753 5.69281 10.2638 5.26988 10.2749 4.6967C10.2805 4.38507 10.2749 4.07344 10.2749 3.75068C10.6811 3.75068 11.0651 3.75068 11.488 3.75068C11.488 4.06231 11.488 4.37951 11.488 4.6967C11.488 5.01946 11.616 5.29214 11.8664 5.49804C12.2838 5.84306 13.4691 5.84306 13.8809 5.49247C14.1146 5.29214 14.2426 5.03616 14.2426 4.73009C14.2482 4.4129 14.2426 4.0957 14.2426 3.75625C14.6488 3.75625 15.0439 3.75625 15.4557 3.75625C15.4557 4.04562 15.4557 4.32942 15.4557 4.61323C15.4557 5.3144 15.8675 5.73176 16.5687 5.73732C16.7969 5.73732 17.0306 5.74289 17.2587 5.73176C17.8041 5.69837 18.1992 5.28101 18.2103 4.73566C18.2159 4.41846 18.2103 4.10127 18.2103 3.74512C18.3661 3.76181 18.4997 3.75625 18.6277 3.78407C19.2454 3.92876 19.6739 4.41846 19.724 5.06955C19.7574 5.42569 19.7351 5.78741 19.7351 6.17138Z" fill="#E1E5FF"/>
<path d="M4.22904 3.80929C4.22904 3.53105 4.22904 3.25281 4.22904 2.97456C4.2346 2.69632 4.35703 2.56277 4.63527 2.56277C4.8356 2.5572 5.03594 2.5572 5.23627 2.56277C5.50338 2.56833 5.6425 2.69632 5.64807 2.95787C5.65363 3.53661 5.65363 4.10979 5.64807 4.68853C5.64807 4.94451 5.51451 5.0725 5.25853 5.07807C5.0415 5.08363 4.82447 5.08363 4.61301 5.07807C4.35703 5.06694 4.2346 4.94451 4.22904 4.68853C4.22347 4.39359 4.22904 4.09866 4.22904 3.80929Z" fill="#E1E5FF"/>
<path d="M8.19306 3.80929C8.19306 3.52548 8.1875 3.24168 8.19306 2.95787C8.19863 2.69632 8.33219 2.56277 8.59373 2.56277C8.79963 2.5572 9.01109 2.5572 9.21699 2.56277C9.46741 2.56833 9.60653 2.70189 9.6121 2.94674C9.61766 3.53105 9.61766 4.10979 9.6121 4.69409C9.6121 4.93895 9.4841 5.06694 9.23925 5.07807C9.01666 5.0892 8.79407 5.0892 8.57147 5.07807C8.31549 5.06694 8.19306 4.93895 8.1875 4.68296C8.1875 4.39359 8.19306 4.09866 8.19306 3.80929Z" fill="#E1E5FF"/>
<path d="M13.5755 3.82071C13.5755 4.11008 13.5811 4.40502 13.5755 4.69439C13.57 4.93924 13.4476 5.06723 13.2027 5.07836C12.9745 5.08949 12.7464 5.08949 12.5182 5.07836C12.2901 5.06723 12.1621 4.93368 12.1565 4.70552C12.151 4.11565 12.151 3.52578 12.1565 2.94147C12.1565 2.70775 12.3012 2.57419 12.5405 2.56863C12.7575 2.56306 12.969 2.56306 13.186 2.56863C13.4364 2.57419 13.57 2.70775 13.5755 2.9526C13.5811 3.23641 13.5755 3.53134 13.5755 3.82071Z" fill="#E1E5FF"/>
<path d="M17.5521 3.83711C17.5521 4.12092 17.5577 4.40473 17.5521 4.6941C17.5465 4.93895 17.4241 5.06694 17.1793 5.07807C16.9567 5.0892 16.7341 5.08363 16.5115 5.07807C16.2666 5.06694 16.1331 4.93895 16.1331 4.69966C16.1275 4.11535 16.1275 3.53105 16.1331 2.94674C16.1331 2.70189 16.2778 2.56833 16.5282 2.56277C16.7452 2.5572 16.9622 2.5572 17.1737 2.56277C17.413 2.56833 17.5465 2.70189 17.5465 2.94118C17.5521 3.24168 17.5521 3.53661 17.5521 3.83711Z" fill="#E1E5FF"/>
<path d="M4.50451 9.38272C4.64363 9.21021 4.77163 9.04883 4.90518 8.89301C5.06656 8.70381 5.25577 8.67042 5.41158 8.79285C5.5674 8.92084 5.57853 9.11561 5.42271 9.30481C5.22238 9.55523 5.02761 9.80565 4.82171 10.0505C4.63807 10.2675 4.45443 10.2731 4.2541 10.0783C4.10941 9.9392 3.96473 9.80008 3.83117 9.64983C3.68648 9.49402 3.68648 9.30481 3.83117 9.17126C3.95916 9.04883 4.14837 9.05439 4.29862 9.18238C4.36539 9.2436 4.42661 9.31038 4.50451 9.38272Z" fill="#E1E5FF"/>
<path d="M4.50451 17.1396C4.64363 16.967 4.77163 16.8057 4.90518 16.6498C5.061 16.4606 5.25577 16.4273 5.41158 16.5497C5.5674 16.6777 5.57853 16.8724 5.42271 17.0616C5.22794 17.3121 5.02761 17.5625 4.82171 17.8073C4.63807 18.0244 4.45443 18.0299 4.2541 17.8352C4.10941 17.696 3.96473 17.5569 3.83117 17.4067C3.68648 17.2509 3.68648 17.0616 3.83117 16.9281C3.95916 16.8057 4.14837 16.8112 4.29862 16.9392C4.36539 17.0004 4.42661 17.0672 4.50451 17.1396Z" fill="#E1E5FF"/>
<path d="M8.65821 13.2958C8.82515 13.0954 8.95314 12.9341 9.0867 12.7727C9.24808 12.5835 9.43172 12.5445 9.5931 12.667C9.74891 12.7894 9.76004 12.9897 9.60979 13.1845C9.40946 13.4349 9.20912 13.6853 9.00879 13.9302C8.83072 14.1472 8.64708 14.1583 8.44118 13.9636C8.29649 13.8244 8.15181 13.6853 8.01269 13.5351C7.868 13.3793 7.87357 13.1845 8.01269 13.0565C8.14068 12.9341 8.33545 12.9341 8.48013 13.0732C8.54691 13.1288 8.59699 13.2067 8.65821 13.2958Z" fill="#E1E5FF"/>
<path d="M16.8981 17.4335C16.8981 16.9327 16.8981 16.4653 16.8981 15.9922C16.8981 15.803 16.976 15.6695 17.1708 15.6305C17.3823 15.5916 17.5548 15.7307 17.5603 15.9589C17.5715 16.5543 17.5715 17.1553 17.5603 17.7507C17.5548 17.9733 17.4212 18.0958 17.1986 18.0958C16.8425 18.1013 16.4919 18.1013 16.1357 18.0958C15.9243 18.0902 15.7852 17.9511 15.7852 17.7619C15.7852 17.5727 15.9298 17.4391 16.1413 17.4335C16.3862 17.428 16.6254 17.4335 16.8981 17.4335Z" fill="#E1E5FF"/>
<path d="M14.4156 18.0971C14.3767 18.0971 14.3322 18.0971 14.2932 18.0971C14.0706 18.0859 13.9204 17.9468 13.9259 17.7576C13.9315 17.574 14.0762 17.4404 14.2876 17.4348C14.3767 17.4293 14.4657 17.4293 14.5603 17.4348C14.7718 17.446 14.9109 17.574 14.9165 17.7632C14.9165 17.9524 14.7773 18.0859 14.5659 18.0971C14.5158 18.0971 14.4657 18.0971 14.4156 18.0971Z" fill="#E1E5FF"/>
<path d="M15.6994 15.9545C15.6604 16.0046 15.6048 16.1326 15.5157 16.166C15.4156 16.2049 15.2653 16.1938 15.1707 16.1381C15.0539 16.0769 14.9481 15.9656 14.8814 15.8488C14.8313 15.7597 14.809 15.615 14.848 15.526C14.8869 15.437 15.0149 15.3535 15.1151 15.3368C15.3265 15.2978 15.7049 15.6707 15.6994 15.9545Z" fill="#E1E5FF"/>
<path d="M15.6872 19.5924C15.6816 19.8595 15.3255 20.2212 15.1251 20.1989C15.025 20.1878 14.8914 20.1155 14.8413 20.032C14.7968 19.9485 14.7968 19.7927 14.8469 19.7092C14.9248 19.5757 15.0472 19.4533 15.1808 19.3754C15.2642 19.3253 15.4201 19.3308 15.5091 19.3754C15.6037 19.4199 15.6538 19.5423 15.6872 19.5924Z" fill="#E1E5FF"/>
<path d="M20.0512 18.0957C19.99 18.0957 19.9232 18.1012 19.862 18.0957C19.6783 18.0678 19.5782 17.9565 19.5671 17.7729C19.5559 17.6004 19.6895 17.4557 19.8731 17.439C19.99 17.4279 20.1068 17.4279 20.2293 17.439C20.424 17.4501 20.5576 17.5893 20.552 17.7729C20.552 17.9565 20.4185 18.0845 20.2181 18.1012C20.1625 18.1012 20.1068 18.1012 20.0512 18.0957Z" fill="#E1E5FF"/>
<path d="M19.0509 19.3106C19.3347 19.305 19.7131 19.6779 19.6741 19.8893C19.6574 19.9895 19.574 20.1175 19.4849 20.1565C19.3959 20.1954 19.2456 20.1732 19.1566 20.1231C19.0397 20.0563 18.9284 19.9506 18.8672 19.8337C18.8171 19.7391 18.806 19.5888 18.8394 19.4887C18.8784 19.3996 19.0063 19.344 19.0509 19.3106Z" fill="#E1E5FF"/>
<path d="M19.3473 15.3341C19.5977 15.3396 19.7591 15.6179 19.6199 15.8293C19.5253 15.9629 19.4029 16.0853 19.2694 16.1743C19.0579 16.3135 18.7852 16.1465 18.7852 15.8905C18.7797 15.6735 19.1358 15.3285 19.3473 15.3341Z" fill="#E1E5FF"/>
<path d="M16.9126 14.9523C16.9126 14.8911 16.9071 14.8243 16.9126 14.7631C16.9349 14.5906 17.0351 14.4848 17.2076 14.4737C17.3801 14.4626 17.5192 14.5405 17.547 14.713C17.5748 14.8744 17.5748 15.0469 17.547 15.2027C17.5192 15.3752 17.3856 15.4587 17.2131 15.442C17.0351 15.4308 16.9349 15.3307 16.9126 15.1526C16.9071 15.0914 16.9126 15.0191 16.9126 14.9523Z" fill="#E1E5FF"/>
<path d="M16.904 20.5685C16.904 20.5073 16.8984 20.4405 16.904 20.3793C16.9263 20.2068 17.0264 20.101 17.2045 20.0899C17.377 20.0788 17.5106 20.1567 17.544 20.3292C17.5718 20.4683 17.5718 20.6186 17.5607 20.7633C17.544 20.9636 17.3937 21.0749 17.2045 21.0638C17.0264 21.0526 16.9151 20.9302 16.8984 20.7354C16.8984 20.6798 16.904 20.6241 16.904 20.5685Z" fill="#E1E5FF"/>
</svg>
